<svg width="800" height="200" viewBox="0 0 800 200" xmlns="http://www.w3.org/2000/svg">
  <!-- Background -->
  <rect width="800" height="200" fill="#0D1117" rx="8"/>

  <!-- ROS Node Network Diagram (Simplified) -->
  <path d="M 100 100 L 250 50 M 100 100 L 250 150 M 250 50 L 550 50 M 250 150 L 550 150 M 550 50 L 700 100 M 550 150 L 700 100 M 250 50 L 250 150 M 550 50 L 550 150" stroke="#161B22" stroke-width="2" fill="none"/>
  
  <circle cx="100" cy="100" r="10" fill="#39FF14"/>
  <circle cx="250" cy="50" r="8" fill="#00F0FF"/>
  <circle cx="250" cy="150" r="8" fill="#00F0FF"/>
  <circle cx="550" cy="50" r="8" fill="#00F0FF"/>
  <circle cx="550" cy="150" r="8" fill="#00F0FF"/>
  <circle cx="700" cy="100" r="10" fill="#39FF14"/>

  <!-- Identity -->
  <text x="400" y="85" font-family="'Courier New', Courier, monospace" font-size="32" font-weight="bold" fill="#C9D1D9" text-anchor="middle" letter-spacing="2">aditya.sys</text>
  
  <rect x="250" y="105" width="300" height="25" fill="#161B22" rx="4"/>
  <text x="400" y="123" font-family="'Courier New', Courier, monospace" font-size="14" font-weight="bold" fill="#00F0FF" text-anchor="middle" letter-spacing="1">SYSTEM_NODE :: AI &amp; RTC BACKEND</text>
  
  <circle cx="20" cy="20" r="4" fill="#39FF14" />
  <text x="35" y="24" font-family="'Courier New', Courier, monospace" font-size="12" fill="#8B949E">RTC / ROS Master [ONLINE]</text>
</svg>
